<svg width="64" height="64" viewBox="0 0 64 64" fill="none" xmlns="http://www.w3.org/2000/svg">
<g clip-path="url(#clip0_3_55)">
<path d="M64.1279 32C64.1279 49.664 49.7919 64 32.1279 64C14.4639 64 0.12793 49.664 0.12793 32C0.12793 14.336 14.4639 0 32.1279 0C49.7919 0 64.1279 14.336 64.1279 32Z" fill="white"/>
<path d="M35.2849 13.824C33.1652 13.4827 31.0046 13.4827 28.8849 13.824C28.7149 13.824 28.6289 13.739 28.7999 13.568L32.1279 11.008L35.4559 13.568C35.5409 13.738 35.4549 13.824 35.2849 13.824ZM29.8259 29.696C29.7409 29.696 29.6559 29.781 29.6559 29.866C30.3389 30.378 30.7659 31.573 32.2159 31.573C33.6659 31.573 34.0929 30.378 34.7759 29.866C34.7759 29.781 34.6909 29.696 34.6059 29.696C33.0232 29.9521 31.4086 29.9521 29.8259 29.696ZM32.1309 27.733C31.7039 27.733 31.6189 27.563 31.3629 27.563C31.0229 27.563 30.7659 27.733 30.5099 27.99C30.5099 28.075 30.5949 28.16 30.5949 28.246C31.1919 28.331 31.4479 28.673 32.0449 28.673C32.6419 28.673 32.9849 28.333 33.4949 28.246C33.5799 28.161 33.5799 28.076 33.5799 27.99C33.3239 27.734 33.0679 27.65 32.7269 27.563C32.6419 27.563 32.5579 27.733 32.1309 27.733ZM64.0449 33.793C64.0449 34.561 63.9599 35.329 63.8749 36.097C60.2909 36.694 58.9249 33.452 55.2549 33.622C55.5109 34.39 55.6819 35.242 55.7669 36.012C58.8389 36.012 60.0339 38.828 63.4469 38.487C63.2769 39.34 63.0199 40.194 62.7639 41.047C60.0339 41.303 59.0939 38.657 56.0239 38.743V40.876C58.6689 40.876 59.5239 43.266 62.0839 43.18L61.0599 45.74C59.2679 45.655 58.5849 43.35 55.8549 43.52L55.5149 45.312C57.9049 45.142 58.4149 47.36 60.1229 47.532C59.6959 48.3 59.1829 49.152 58.6729 49.836C57.6489 49.324 56.7959 47.616 54.8329 47.532L55.3449 45.655C53.3819 45.57 51.5049 44.802 50.0549 43.435C50.5669 40.363 45.8749 37.291 45.8749 35.072C45.8749 32.682 47.0699 31.317 47.0699 28.075C46.9849 25.515 45.9599 23.04 44.1699 21.248C43.8299 20.908 43.4869 20.651 43.0599 20.395C44.8519 22.358 45.8759 24.832 45.9599 27.478C45.9599 30.55 44.5099 32.171 44.5099 34.988C44.5099 37.805 48.6059 40.278 48.6059 43.18C48.6059 44.29 48.2659 45.484 47.0699 47.617C48.6059 49.237 50.6539 50.262 52.8729 50.517C53.2999 50.602 53.6409 50.347 53.8129 49.92C53.9829 49.58 54.1529 49.237 54.2399 48.896C55.9469 48.981 56.7149 50.516 57.6529 51.116L56.0329 53.079C55.4359 52.396 54.5829 51.202 53.3029 50.859C53.0469 51.286 52.8759 51.712 52.6199 52.139C53.6439 52.395 54.4119 53.504 54.9239 54.187L53.0469 55.979C52.6199 55.211 52.0229 54.614 51.2549 54.102C50.9989 54.442 50.7429 54.785 50.4019 55.126C50.9989 55.638 51.5119 56.236 51.8519 56.918L49.4619 58.625C49.0349 55.382 44.5979 53.165 45.7919 49.409C45.2799 50.177 45.0239 51.029 44.9389 51.884C44.9389 54.614 47.8389 56.748 48.0959 59.479L46.2079 60.5C46.1229 57.513 43.0509 54.27 43.0509 51.796C43.0509 49.066 46.6349 46.336 46.6349 43.092C46.6349 39.848 42.5389 37.632 42.5389 34.815C42.5389 31.998 44.3309 30.378 44.3309 26.708C44.3309 23.978 43.1359 21.418 41.0879 19.625L39.9779 18.857C41.8549 21.077 42.8779 23.037 42.8779 26.11C42.8779 29.523 40.9149 31.4 40.9149 34.73C40.9149 38.06 44.9249 39.935 44.9249 43.007C44.9249 46.079 41.1699 48.724 41.1699 51.967C41.1699 54.867 44.4979 57.77 44.4979 61.267C43.773 61.5883 43.0324 61.873 42.2789 62.12C42.7059 58.62 38.9509 55.037 38.9509 52.22C38.9509 49.063 42.8759 46.417 42.8759 43.09C42.8759 39.763 38.8659 38.14 38.8659 34.727C38.8659 31.314 41.3409 29.351 41.3409 25.597C41.3409 22.781 39.9759 20.05 37.7569 18.344L37.5869 18.259C37.4169 18.089 37.2469 18.259 37.3309 18.429C38.8669 20.306 39.7209 22.696 39.6349 25.085C39.6349 28.585 36.8189 31.4 36.8189 34.728C36.8189 38.738 40.5739 39.848 40.5739 43.091C40.5739 46.334 36.5639 48.979 36.5639 52.478C36.5639 55.721 40.4039 59.218 39.7209 62.974L37.4169 63.486C38.0999 58.878 34.3449 55.55 34.3449 52.563C34.3449 49.32 38.5249 46.419 38.5249 43.176C38.5249 40.189 35.5379 39.166 35.1119 36.093C35.1119 35.666 34.7719 35.41 34.3439 35.41H34.2589C33.397 35.6704 32.5107 35.842 31.6139 35.922C30.7609 35.837 29.8219 35.666 28.9689 35.41C28.5419 35.325 28.2009 35.58 28.1159 36.007V36.092C27.6889 39.164 24.7029 40.188 24.7029 43.175C24.7029 46.418 28.8829 49.319 28.8829 52.562C28.8829 55.549 25.1279 58.877 25.8109 63.485L23.5069 62.973C22.9099 59.303 26.7499 55.72 26.7499 52.477C26.7499 48.977 22.7399 46.417 22.7399 43.09C22.7399 39.763 26.4949 38.653 26.4949 34.727C26.4949 31.314 23.6789 28.497 23.6789 25.084C23.5939 22.694 24.4469 20.304 25.9829 18.428C26.1529 18.258 25.9829 18.088 25.7269 18.258L25.5569 18.343C23.3369 20.05 21.9729 22.78 21.9729 25.596C21.9729 29.436 24.4479 31.313 24.4479 34.726C24.4479 38.139 20.4379 39.761 20.4379 43.089C20.4379 46.417 24.3629 49.149 24.3629 52.219C24.3629 55.035 20.6079 58.704 21.0349 62.119C20.2814 61.872 19.5408 61.5873 18.8159 61.266C18.9009 57.853 22.2289 54.951 22.2289 51.966C22.2289 48.723 18.4739 46.163 18.4739 43.006C18.4739 39.849 22.9969 38.142 22.9969 34.814C22.9969 31.486 21.0339 29.609 21.0339 26.194C21.0339 23.122 22.0579 21.159 23.9339 18.941C23.5069 19.111 23.1659 19.368 22.8239 19.709C20.7759 21.501 19.6669 24.061 19.5809 26.792C19.5809 30.376 21.3729 32.082 21.3729 34.899C21.3729 37.716 17.2769 40.019 17.2769 43.176C17.2769 46.333 20.8609 49.149 20.8609 51.88C20.8609 54.355 17.7889 57.597 17.7039 60.584C17.1069 60.244 16.4239 59.901 15.8269 59.56C16.0829 56.83 18.9839 54.696 18.9839 51.965C18.8989 51.112 18.6439 50.173 18.1309 49.49C19.3259 53.245 14.8879 55.463 14.4609 58.706C13.6929 58.194 12.8409 57.596 12.0709 56.999C12.4109 56.316 12.9239 55.719 13.5209 55.207C13.2649 54.867 12.9239 54.524 12.6679 54.183C11.9849 54.695 11.3879 55.293 10.8759 56.06C10.1929 55.463 9.59591 54.865 8.99891 54.268C9.59591 53.585 10.2789 52.476 11.3029 52.22C11.0469 51.793 10.7909 51.367 10.6199 50.94C9.42491 51.28 8.57191 52.39 7.88991 53.16C7.29291 52.477 6.77991 51.88 6.26991 51.197C7.20991 50.6 7.97691 49.064 9.68291 48.977C9.85291 49.317 9.93891 49.66 10.1099 50.001C10.2799 50.428 10.6219 50.598 11.0499 50.598C13.2699 50.342 15.3169 49.318 16.8529 47.782C15.6579 45.562 15.3169 44.454 15.3169 43.345C15.3169 40.445 19.4129 37.969 19.4129 35.153C19.4129 32.337 17.9629 30.716 17.9629 27.643C18.0474 24.9848 19.0758 22.4437 20.8639 20.475C20.4369 20.731 20.0959 20.987 19.7539 21.328C17.9619 23.12 16.9379 25.595 16.8539 28.155C16.8539 31.398 18.0489 32.763 18.0489 35.152C18.0489 37.372 13.3559 40.442 13.8689 43.515C12.4189 44.88 10.5409 45.648 8.57891 45.648L9.09091 47.525C7.12791 47.61 6.27491 49.317 5.25091 49.829C4.73891 49.061 4.31091 48.293 3.80091 47.525C5.50791 47.355 6.02091 45.135 8.40891 45.305C8.32391 44.708 8.23891 44.11 8.06891 43.513C5.33891 43.343 4.65591 45.646 2.86391 45.733C2.43691 44.88 2.09591 44.026 1.83991 43.173C4.39991 43.258 5.25291 40.869 7.89991 40.869V38.74C4.74291 38.655 3.80391 41.3 1.15991 41.044C0.903906 40.191 0.732906 39.337 0.476906 38.484C3.88991 38.911 5.08491 36.009 8.15691 36.009L8.66891 33.619C4.99891 33.449 3.63391 36.691 0.0489063 36.094C-0.0360937 35.326 -0.121094 34.558 -0.121094 33.79C4.05891 34.217 5.68191 30.803 9.52191 31.23C9.86191 30.29 10.3749 29.438 10.8019 28.585C6.02191 27.732 4.40191 31.742 -0.121094 31.145C0.383906 13.483 15.0599 -0.427018 32.7249 0.0849818C49.7049 0.596982 63.3599 14.165 63.7849 31.145C59.3479 31.742 57.6409 27.732 52.8619 28.585C53.3739 29.438 53.7149 30.292 54.1419 31.23C58.2379 30.718 59.8589 34.217 64.0419 33.79M18.3899 20.31C15.8299 19.286 13.0139 19.627 10.7099 21.163C10.3699 18.943 9.17391 16.983 7.38191 15.703C7.31844 15.6615 7.24425 15.6394 7.16841 15.6394C7.09257 15.6394 7.01837 15.6615 6.95491 15.703C6.86991 15.788 6.86991 15.873 6.86991 15.959C7.20991 20.739 4.47991 24.919 0.981906 28.589C4.56591 29.613 7.55191 25.089 12.1619 26.712C13.7819 24.152 15.9169 22.019 18.3919 20.312M32.1319 17.412C29.1449 17.412 26.6719 19.119 25.9879 21.252C25.9029 21.422 25.9879 21.508 26.1579 21.422C26.7549 21.166 27.3529 21.082 27.9499 21.082C29.0599 20.997 30.0829 21.509 30.8499 22.277C31.1059 23.301 31.1059 24.325 30.8499 25.264C30.3379 25.179 30.1669 24.752 29.6549 24.752C29.1429 24.752 28.8019 25.092 27.9479 25.092C27.0939 25.092 27.0079 24.665 26.4979 24.665C25.9879 24.665 25.7299 25.348 25.7299 26.03C25.7299 29.358 28.8019 33.88 31.9599 33.88C35.1179 33.88 38.1899 29.357 38.1899 26.03C38.1899 25.262 38.0199 24.665 37.3369 24.58C36.9099 24.92 36.4839 25.092 35.9719 25.007C35.1189 25.007 34.9479 24.667 34.4359 24.667C33.9239 24.667 33.9239 25.947 33.2409 25.947C32.8139 24.752 32.7289 23.387 33.1559 22.107C33.9239 21.254 34.9479 20.827 36.0559 20.912C36.6529 20.912 37.2509 20.997 37.8479 21.252C38.0179 21.337 38.1039 21.252 38.0179 21.082C37.5059 19.119 35.0309 17.412 32.1299 17.412M36.7379 22.192C35.9699 22.192 35.2019 22.448 34.6899 22.96C34.6049 23.13 34.6049 23.3 34.6899 23.557C35.9699 23.13 37.0799 23.13 37.6769 23.727C37.9329 23.557 38.0169 23.215 38.0169 22.959C38.0169 22.447 37.5899 22.191 36.7369 22.191M26.4099 23.723C27.0069 23.126 28.3729 23.126 29.7379 23.638C29.8229 22.955 28.6279 22.188 27.3479 22.188C26.4949 22.188 26.0679 22.444 26.0679 22.871C26.0679 23.211 26.1529 23.554 26.4079 23.724M46.8899 12.46C44.6699 12.63 42.6229 13.4 40.9169 14.764C41.5999 12.887 42.5369 11.009 43.6469 9.38798C40.9169 9.55798 38.3569 10.753 36.3069 12.631L34.9419 8.96098L38.0999 6.14398L33.8329 5.80398L32.1259 1.87898L30.4189 5.80398L26.1519 6.14398L29.3089 8.95998L27.8589 12.715C25.8959 10.752 23.3359 9.64298 20.5189 9.47198C21.6289 11.179 22.5669 12.972 23.2489 14.848C21.5419 13.483 19.4089 12.628 17.1889 12.544C18.6389 14.336 19.8339 16.299 20.7729 18.347C20.8579 18.517 21.1129 18.687 21.2849 18.603H21.3699C24.6859 16.9612 28.3362 16.1071 32.0364 16.1071C35.7366 16.1071 39.3869 16.9612 42.7029 18.603C42.8729 18.688 43.1299 18.688 43.2149 18.518V18.433C44.2389 16.213 45.4349 14.253 46.8849 12.46M52.0049 26.625C56.6129 25.005 59.5999 29.612 63.1849 28.502C59.7719 24.832 56.9549 20.737 57.2969 15.872C57.2969 15.702 57.2119 15.532 57.0409 15.532C56.9559 15.532 56.8709 15.532 56.7849 15.617C54.9929 16.897 53.7979 18.945 53.4569 21.077C51.1529 19.541 48.3369 19.2 45.7769 20.224C48.2519 22.016 50.3849 24.149 52.0069 26.624" fill="#006241"/>
</g>
<defs>
<clipPath id="clip0_3_55">
<rect width="64" height="64" fill="white"/>
</clipPath>
</defs>
</svg>
